<svg width="830" height="618" viewBox="0 0 830 618" fill="none" xmlns="http://www.w3.org/2000/svg">
  <style type="text/css">
    <![CDATA[
      #full {
        transform: scale(1);
      }
      #circle {
            animation: circle 3s linear 0s infinite alternate both;
      }
     @keyframes circle {
	0% {
		transform: scale3d(1, 1, 1);
	}

	50% {
		transform: scale3d(0.85, 1.15, 1);
	}

	100% {
		transform: scale3d(1, 1, 1);
	}
}
 #circle:hover {
            animation-play-state: running;
        }
    ]]>
  </style>
<g clip-path="url(#clip0_222_1761)" >
<g clip-path="url(#clip1_222_1761)" id="full">
<path fill-rule="evenodd" clip-rule="evenodd" d="M782.87 244.2L782.9 244.24C803.17 264.55 803.17 297.68 782.9 317.95L731.15 369.7C707.55 393.3 707.51 431.84 731.11 455.45L782.9 507.24C803.17 527.51 803.17 560.64 782.9 580.91L782.87 580.94C762.6 601.25 729.47 601.21 709.2 580.94L657.42 529.15C633.82 505.55 595.28 505.55 571.69 529.15L519.91 580.94C499.64 601.21 466.51 601.25 446.24 580.94L446.21 580.91C425.94 560.64 425.94 527.51 446.21 507.24L498 455.45C521.6 431.81 521.6 393.31 497.96 369.7L446.2 317.95C425.93 297.68 425.93 264.55 446.2 244.24L446.23 244.2C466.5 223.93 499.63 223.93 519.9 244.2L571.68 295.99C595.28 319.59 633.81 319.59 657.41 295.99L709.19 244.2C729.46 223.93 762.59 223.93 782.86 244.2H782.87Z" fill="#191D26"/>
</g>
<path fill-rule="evenodd" clip-rule="evenodd" d="M572.112 132.928C572.09 132.978 572.068 133.027 572.052 133.076C566.994 145.244 572.735 159.213 584.878 164.287C589.554 166.241 594.504 166.586 599.103 165.579C602.108 164.922 604.249 162.492 604.522 159.421C604.801 156.35 603.124 153.575 600.289 152.387L595.471 150.378C589.309 147.806 585.539 141.828 585.419 135.517C585.359 132.206 583.054 129.463 579.809 128.828C576.564 128.199 573.407 129.879 572.118 132.934L572.112 132.928Z" fill="#414856"/>
<path fill-rule="evenodd" clip-rule="evenodd" d="M586.801 139.962C593.673 143.345 596.536 151.747 593.154 158.633L585.015 175.229L581.715 181.956L581.705 181.978L573.582 198.552C570.206 205.438 561.82 208.306 554.948 204.918C548.076 201.535 545.214 193.133 548.59 186.247L556.707 169.689L556.724 169.651L560.023 162.924L568.163 146.328C571.538 139.442 579.924 136.574 586.796 139.956L586.801 139.962Z" fill="#A88D6F"/>
<path fill-rule="evenodd" clip-rule="evenodd" d="M544.504 121.707C544.493 121.746 544.482 121.784 544.471 121.822C541.625 131.511 547.159 141.675 556.828 144.527C560.553 145.627 564.35 145.479 567.769 144.324C570.004 143.575 571.429 141.544 571.386 139.179C571.342 136.82 569.84 134.844 567.578 134.176L563.743 133.043C558.833 131.598 555.467 127.356 554.856 122.561C554.533 120.043 552.55 118.144 550.027 117.936C547.503 117.728 545.236 119.271 544.504 121.702V121.707Z" fill="#414856"/>
<path fill-rule="evenodd" clip-rule="evenodd" d="M569.769 166.646C556.319 161.911 543.444 163.696 541.018 170.631C538.588 177.566 547.525 187.019 560.974 191.754C574.423 196.489 587.298 194.704 589.729 187.769C592.155 180.839 583.223 171.381 569.769 166.646Z" fill="#414856"/>
<path fill-rule="evenodd" clip-rule="evenodd" d="M577.69 120.607C564.394 117.958 551.474 126.612 548.83 139.94C546.187 153.263 554.823 166.214 568.119 168.863C581.415 171.512 594.335 162.858 596.979 149.53C599.623 136.207 590.986 123.256 577.69 120.607Z" fill="#C9AB87"/>
<path fill-rule="evenodd" clip-rule="evenodd" d="M550.709 105.018C550.693 105.067 550.676 105.122 550.666 105.171C546.956 117.815 554.178 131.084 566.791 134.8C571.653 136.234 576.608 136.043 581.071 134.538C583.988 133.558 585.851 130.908 585.791 127.827C585.736 124.745 583.769 122.167 580.82 121.297L575.81 119.819C569.403 117.93 565.011 112.396 564.213 106.14C563.792 102.85 561.209 100.376 557.915 100.103C554.621 99.8289 551.665 101.843 550.709 105.018Z" fill="#414856"/>
<path fill-rule="evenodd" clip-rule="evenodd" d="M565.426 105.554C565.404 105.598 565.382 105.653 565.366 105.702C560.308 117.87 566.049 131.839 578.192 136.908C582.874 138.862 587.818 139.207 592.417 138.199C595.422 137.543 597.563 135.107 597.836 132.036C598.109 128.965 596.438 126.19 593.597 125.008L588.779 122.993C582.617 120.421 578.848 114.444 578.728 108.132C578.668 104.821 576.362 102.079 573.118 101.444C569.873 100.814 566.715 102.495 565.426 105.549V105.554Z" fill="#414856"/>
<path fill-rule="evenodd" clip-rule="evenodd" d="M581.065 126.644C581.098 126.634 581.137 126.628 581.169 126.617C589.778 124.428 598.53 129.65 600.715 138.276C601.556 141.599 601.299 144.948 600.174 147.926C599.442 149.875 597.607 151.068 595.531 150.948C593.46 150.833 591.772 149.437 591.259 147.417L590.39 143.991C589.281 139.612 585.665 136.497 581.47 135.796C579.268 135.43 577.668 133.618 577.564 131.385C577.466 129.151 578.897 127.203 581.06 126.634L581.065 126.644Z" fill="#414856"/>
<path fill-rule="evenodd" clip-rule="evenodd" d="M597.585 143.87C593.766 143.109 590.057 145.594 589.298 149.42C588.539 153.247 591.019 156.963 594.837 157.724C598.656 158.485 602.365 156 603.124 152.174C603.883 148.348 601.403 144.631 597.59 143.87H597.585Z" fill="#C9AB87"/>
<path fill-rule="evenodd" clip-rule="evenodd" d="M596.869 131.516C596.869 131.516 596.886 131.5 596.891 131.494C598.847 129.753 601.84 129.923 603.583 131.883C604.255 132.638 604.643 133.547 604.746 134.477C604.817 135.085 604.501 135.649 603.943 135.9C603.386 136.152 602.758 136.015 602.348 135.561L601.655 134.784C600.77 133.788 599.404 133.47 598.213 133.853C597.59 134.056 596.924 133.799 596.596 133.229C596.268 132.66 596.378 131.954 596.864 131.511L596.869 131.516Z" fill="#414856"/>
<path fill-rule="evenodd" clip-rule="evenodd" d="M597.738 133.322C597.738 133.322 597.76 133.322 597.771 133.322C600.387 133.224 602.425 131.023 602.332 128.402C602.294 127.389 601.944 126.469 601.381 125.719C601.01 125.232 600.398 125.046 599.819 125.254C599.245 125.457 598.879 125.993 598.907 126.606L598.945 127.646C598.994 128.976 598.229 130.153 597.099 130.706C596.509 130.991 596.203 131.636 596.361 132.277C596.52 132.917 597.088 133.35 597.743 133.328L597.738 133.322Z" fill="#414856"/>
<path fill-rule="evenodd" clip-rule="evenodd" d="M572.331 150.439C564.535 148.884 556.959 153.958 555.407 161.775C553.856 169.585 558.92 177.183 566.721 178.732C574.516 180.287 582.093 175.212 583.644 167.396C585.19 159.585 580.131 151.993 572.336 150.439H572.331Z" fill="#414856"/>
<path fill-rule="evenodd" clip-rule="evenodd" d="M566.114 155.222C566.541 157.357 568.305 159.065 570.577 159.311C572.85 159.558 574.937 158.271 575.811 156.279C575.936 155.994 575.92 155.693 575.762 155.425C575.609 155.157 575.357 154.993 575.046 154.954L567.136 154.095C566.83 154.062 566.546 154.166 566.338 154.396C566.131 154.626 566.049 154.916 566.109 155.222H566.114Z" fill="white"/>
<path fill-rule="evenodd" clip-rule="evenodd" d="M574.188 89.0403C561.209 89.0403 549.453 94.3169 540.947 102.839C532.442 111.362 527.176 123.141 527.176 136.152C527.176 149.163 532.437 160.937 540.947 169.46C549.453 177.982 561.209 183.259 574.188 183.259C587.167 183.259 598.923 177.982 607.428 169.46C615.934 160.937 621.2 149.152 621.2 136.152C621.2 123.152 615.939 111.367 607.428 102.839C598.923 94.3169 587.167 89.0403 574.188 89.0403ZM541.712 103.606C550.021 95.2803 561.504 90.1241 574.188 90.1241C586.872 90.1241 598.355 95.2748 606.664 103.606C614.972 111.931 620.113 123.442 620.113 136.152C620.113 148.862 614.972 160.368 606.664 168.699C598.355 177.024 586.872 182.175 574.188 182.175C561.504 182.175 550.021 177.024 541.712 168.699C533.403 160.373 528.263 148.862 528.263 136.152C528.263 123.442 533.403 111.931 541.712 103.606Z" fill="#414856"/>
<path fill-rule="evenodd" clip-rule="evenodd" d="M611.438 187.178C595.853 182.317 579.126 191.119 574.276 206.741L552.54 276.733C547.689 292.355 556.473 309.109 572.058 313.97C587.643 318.831 604.364 310.029 609.22 294.407L630.956 224.415C635.807 208.799 627.023 192.038 611.438 187.178Z" fill="#414856"/>
<path fill-rule="evenodd" clip-rule="evenodd" d="M569.78 170.636C556.331 165.902 543.455 167.686 541.03 174.621C538.599 181.551 547.536 191.009 560.985 195.744C574.434 200.479 587.31 198.694 589.74 191.759C592.166 184.824 583.234 175.371 569.78 170.636Z" fill="#8BC9A7"/>
<path fill-rule="evenodd" clip-rule="evenodd" d="M716.13 188.891C703.861 184.808 691.63 188.393 688.806 196.905C685.982 205.416 693.64 215.625 705.91 219.708C718.179 223.791 730.41 220.206 733.234 211.694C736.058 203.183 728.399 192.974 716.13 188.891Z" fill="#EA592F"/>
<path fill-rule="evenodd" clip-rule="evenodd" d="M662.312 428.326C643.493 428.326 628.236 443.992 628.236 463.319C628.236 482.647 643.493 498.313 662.312 498.313C681.131 498.313 696.394 482.647 696.394 463.319C696.394 443.992 681.136 428.326 662.312 428.326Z" fill="#0F121A"/>
<path fill-rule="evenodd" clip-rule="evenodd" d="M437.457 321.967C436.993 331.218 444.837 339.133 454.987 339.647C465.131 340.162 473.735 333.079 474.199 323.828C474.663 314.578 466.819 306.663 456.669 306.148C446.525 305.634 437.921 312.717 437.457 321.967Z" fill="#C9AB87"/>
<path fill-rule="evenodd" clip-rule="evenodd" d="M476.826 355.537C478.509 357.376 481.361 357.502 483.196 355.816C485.031 354.13 485.152 351.273 483.475 349.434C483.447 349.401 472.839 338.164 473.254 329.504C473.38 327.014 471.457 324.89 468.971 324.77C466.486 324.649 464.366 326.57 464.246 329.061C463.64 341.634 476.794 355.499 476.832 355.537H476.826Z" fill="#C9AB87"/>
<path fill-rule="evenodd" clip-rule="evenodd" d="M467.032 363.917C468.6 366.107 471.648 366.61 473.833 365.04C476.018 363.469 476.521 360.42 474.953 358.225C474.926 358.186 464.989 344.749 466.551 335.509C467.005 332.849 465.219 330.325 462.564 329.871C459.909 329.417 457.391 331.207 456.937 333.867C454.67 347.283 466.999 363.868 467.038 363.917H467.032Z" fill="#C9AB87"/>
<path fill-rule="evenodd" clip-rule="evenodd" d="M457.669 362.976C459.106 365.253 462.121 365.932 464.393 364.487C466.666 363.042 467.343 360.026 465.901 357.749C465.879 357.71 456.724 343.725 458.816 334.584C459.422 331.957 457.784 329.329 455.156 328.727C452.534 328.12 449.912 329.762 449.311 332.395C446.274 345.657 457.636 362.927 457.669 362.976Z" fill="#C9AB87"/>
<path fill-rule="evenodd" clip-rule="evenodd" d="M440.38 351.509C441.145 353.736 443.565 354.919 445.782 354.152C448.006 353.386 449.186 350.961 448.421 348.733C448.41 348.695 443.45 334.962 447.072 327.627C448.115 325.514 447.252 322.952 445.143 321.912C443.035 320.867 440.484 321.732 439.44 323.845C434.191 334.496 440.358 351.465 440.374 351.509H440.38Z" fill="#C9AB87"/>
<path fill-rule="evenodd" clip-rule="evenodd" d="M486.015 324.189C487.61 326.1 487.359 328.952 485.452 330.55C483.546 332.148 480.7 331.896 479.105 329.986C479.077 329.953 469.359 317.933 460.739 317.205C458.259 316.997 456.413 314.813 456.62 312.328C456.828 309.843 459.007 307.993 461.488 308.195C474.003 309.252 485.982 324.146 486.015 324.189Z" fill="#C9AB87"/>
<path fill-rule="evenodd" clip-rule="evenodd" d="M465.333 299.465C461.63 294.528 447.208 272.562 467.731 252.61C497.623 223.545 536.96 220.584 537.075 220.573C547.197 219.757 553.354 210.616 550.83 200.14C548.311 189.668 538.058 181.836 527.941 182.646C527.794 182.657 476.745 186.51 439.14 223.08C404.397 256.863 420.299 296.181 428.783 311.584C426.92 315.163 426.417 318.962 427.674 322.421C430.738 330.845 443.067 334.08 455.216 329.641C467.36 325.202 474.724 314.78 471.659 306.351C470.572 303.368 468.327 301.036 465.333 299.465Z" fill="#EA592F"/>
<path fill-rule="evenodd" clip-rule="evenodd" d="M540.817 238.302C514.394 226.254 487.96 227.524 481.776 241.143C475.592 254.761 491.997 275.567 518.42 287.62C544.843 299.667 571.277 298.397 577.46 284.779C583.644 271.16 567.24 250.355 540.817 238.302Z" fill="#EA592F"/>
<path fill-rule="evenodd" clip-rule="evenodd" d="M559.286 178.956C582.857 186.641 596.197 212.351 588.937 236.102L584.933 249.2C578.471 270.328 556.03 282.026 535.064 275.195L525.608 272.113C504.643 265.282 492.772 242.402 499.229 221.273L503.233 208.175C510.499 184.425 535.714 171.277 559.286 178.956Z" fill="#EA592F"/>
<path fill-rule="evenodd" clip-rule="evenodd" d="M632.89 415.77C635.665 390.525 625.024 381.357 631.114 376.206C637.205 371.055 647.071 380.119 653.156 396.453C655.718 403.328 657.204 410.394 657.608 416.662C658.461 429.919 651.703 443.264 645.935 444.698C638.287 446.597 631.076 432.322 632.89 415.775V415.77Z" fill="#414856"/>
<path fill-rule="evenodd" clip-rule="evenodd" d="M629.028 417.012C631.617 391.28 620.872 381.816 626.947 376.622C633.021 371.427 642.996 380.776 649.229 397.498C651.851 404.538 653.397 411.768 653.85 418.162C654.806 431.698 648.126 445.251 642.346 446.652C634.682 448.513 627.335 433.876 629.033 417.007L629.028 417.012Z" fill="white"/>
<path fill-rule="evenodd" clip-rule="evenodd" d="M625.898 414.916C631.382 390.295 621.932 380.059 628.476 375.653C635.026 371.241 643.733 381.285 647.929 398.084C649.693 405.156 650.381 412.299 650.092 418.528C649.48 431.714 641.379 444.145 635.556 444.922C627.831 445.951 622.303 431.058 625.898 414.916Z" fill="#EA592F"/>
<path fill-rule="evenodd" clip-rule="evenodd" d="M649.715 422.283C647.95 433.986 640.822 444.216 635.55 444.922C630.197 445.634 625.898 438.699 624.963 429.005C626.16 428.009 627.443 427.078 628.809 426.23C635.998 421.747 643.733 420.515 649.715 422.289V422.283Z" fill="#8BC9A7"/>
<path fill-rule="evenodd" clip-rule="evenodd" d="M635.244 406.415C644.241 401.992 648.852 391.981 645.541 384.066C642.231 376.151 633.371 370.168 624.373 374.596C624.302 374.629 599.12 390.092 582.589 366.386C561.334 335.909 564.328 300.822 564.339 300.724C565.065 291.687 557.915 284.96 548.366 285.693C538.817 286.426 530.486 294.341 529.76 303.378C529.749 303.51 525.87 349.04 552.61 387.383C584.07 432.492 635.097 406.492 635.244 406.415Z" fill="#414856"/>
<path fill-rule="evenodd" clip-rule="evenodd" d="M273.812 316.636C272.49 332.564 282.361 347.058 295.859 349.002C309.357 350.945 324.751 343.698 326.073 327.764C326.084 327.643 325.598 280.526 371.419 277.275C430.334 273.093 475.718 305.869 475.843 305.962C487.566 314.342 502.583 310.051 509.384 296.383C516.191 282.715 512.208 264.838 500.485 256.458C500.316 256.338 441.423 213.807 367.3 219.073C280.088 225.269 273.828 316.373 273.806 316.636H273.812Z" fill="#414856"/>
<path fill-rule="evenodd" clip-rule="evenodd" d="M502.633 271.905C483.267 271.905 471.195 285.315 475.669 301.862C480.137 318.409 499.459 331.82 518.824 331.82C538.189 331.82 550.262 318.409 545.788 301.862C541.314 285.315 521.998 271.905 502.633 271.905Z" fill="#414856"/>
<path fill-rule="evenodd" clip-rule="evenodd" d="M268.469 269.349C292.685 322.361 327.062 328.344 319.873 345.455C312.684 362.565 280.121 355.926 247.148 330.616C233.267 319.958 221.523 307.692 213.116 295.781C195.324 270.575 194.144 236.507 205.096 227.097C219.616 214.623 252.594 234.591 268.469 269.343V269.349Z" fill="#EA592F"/>
<path fill-rule="evenodd" clip-rule="evenodd" d="M268.469 269.349C268.923 270.345 269.387 271.319 269.846 272.283C269.283 274.532 268.447 276.716 267.322 278.807C257.855 296.394 231.585 300.625 208.478 288.359C195.209 264.302 195.187 235.609 205.097 227.097C219.616 214.628 252.595 234.591 268.469 269.349Z" fill="#8BC9A7"/>
<path fill-rule="evenodd" clip-rule="evenodd" d="M261.226 275.479C290.817 325.678 325.631 328.037 320.261 345.805C314.886 363.578 281.815 360.37 246.389 338.634C231.476 329.482 218.518 318.513 208.921 307.544C188.605 284.33 183.891 250.574 193.805 240.07C206.948 226.15 241.822 242.566 261.226 275.474V275.479Z" fill="white"/>
<path fill-rule="evenodd" clip-rule="evenodd" d="M256.462 285.578C287.419 332.887 323.15 333.298 317.852 350.906C312.553 368.515 278.597 367.185 242.008 347.929C226.603 339.822 213.181 329.827 203.206 319.663C182.093 298.146 176.849 265.501 186.889 254.734C200.202 240.459 236.163 254.559 256.457 285.578H256.462Z" fill="#414856"/>
<path fill-rule="evenodd" clip-rule="evenodd" d="M530.181 252.955C504.38 239.616 477.919 239.577 471.074 252.873C464.23 266.168 479.591 287.762 505.385 301.107C531.186 314.446 557.647 314.485 564.497 301.189C571.342 287.894 555.981 266.3 530.181 252.961V252.955Z" fill="#414856"/>
<path fill-rule="evenodd" clip-rule="evenodd" d="M727.498 214.667C731.005 203.955 726.602 192.394 717.66 188.847C708.718 185.3 696.973 187.747 693.471 198.459C693.444 198.541 686.086 230.94 654.118 225.658C613.022 218.865 587.249 188.94 587.173 188.853C580.498 181.184 569.501 181.66 562.602 189.926C555.702 198.185 555.517 211.103 562.187 218.772C562.285 218.881 595.738 257.712 647.443 266.256C708.275 276.311 727.444 214.842 727.504 214.667H727.498Z" fill="#EA592F"/>
<path fill-rule="evenodd" clip-rule="evenodd" d="M630.459 218.405C618.048 213.254 607.942 206.527 600.638 200.753C598.71 203.555 597.585 206.949 597.585 210.605C597.585 220.211 605.352 228.001 614.94 228.001C621.724 228.001 627.602 224.092 630.459 218.405Z" fill="#8BC9A7"/>
<path fill-rule="evenodd" clip-rule="evenodd" d="M711.088 244.137C711.22 243.869 711.116 243.546 710.848 243.414C710.586 243.283 710.258 243.387 710.127 243.655C710.127 243.655 709.597 244.422 708.483 245.735L709.302 246.436C710.482 245.046 711.088 244.137 711.088 244.137ZM704.216 251.63C704.44 251.433 704.457 251.088 704.26 250.87C704.063 250.645 703.719 250.629 703.501 250.826L702.124 252.024L700.617 253.262C700.387 253.448 700.343 253.787 700.529 254.017C700.715 254.247 701.054 254.291 701.283 254.104L702.818 252.846L704.216 251.625V251.63ZM696.077 257.81C696.328 257.651 696.399 257.318 696.241 257.066C696.082 256.814 695.749 256.743 695.498 256.902C687.796 261.817 676.963 266.355 662.782 266.973C651.96 267.449 639.183 265.648 624.352 260C624.073 259.896 623.762 260.038 623.658 260.317C623.554 260.596 623.696 260.908 623.975 261.012C638.954 266.716 651.873 268.539 662.831 268.057C677.236 267.422 688.244 262.813 696.077 257.81ZM615.874 257.635C616.147 257.755 616.464 257.635 616.59 257.361C616.71 257.088 616.59 256.77 616.316 256.644C614.672 255.9 613.006 255.112 611.329 254.28C609.652 253.448 607.942 252.561 606.205 251.63C605.943 251.488 605.615 251.587 605.473 251.849C605.331 252.112 605.429 252.44 605.691 252.583C607.434 253.519 609.149 254.411 610.848 255.254C612.553 256.097 614.224 256.896 615.868 257.635H615.874Z" fill="#414856"/>
<path fill-rule="evenodd" clip-rule="evenodd" d="M475.292 271.828C475.302 271.527 475.068 271.275 474.773 271.264C474.472 271.253 474.221 271.483 474.21 271.784C474.21 271.784 473.937 273 473.642 275.096C473.604 275.392 473.811 275.665 474.101 275.704C474.396 275.742 474.669 275.534 474.707 275.244C475.007 273.098 475.286 271.828 475.286 271.828H475.292ZM474.357 278.221C474.385 277.926 474.166 277.658 473.871 277.63C473.576 277.603 473.309 277.822 473.281 278.117C473.117 279.743 472.986 281.637 472.932 283.723C472.877 285.797 472.899 288.063 473.046 290.433C473.063 290.729 473.325 290.959 473.62 290.937C473.915 290.92 474.139 290.658 474.123 290.362C473.975 288.025 473.953 285.792 474.008 283.75C474.062 281.714 474.199 279.842 474.357 278.221ZM474.652 295.524C474.614 295.228 474.341 295.026 474.046 295.064C473.751 295.108 473.549 295.381 473.587 295.677C474.363 301.041 475.903 306.696 478.7 311.939C481.508 317.194 485.589 322.038 491.434 325.749C491.685 325.908 492.018 325.832 492.177 325.58C492.335 325.328 492.259 324.994 492.007 324.835C486.332 321.228 482.371 316.532 479.645 311.43C476.914 306.318 475.406 300.779 474.652 295.524Z" fill="white"/>
<path fill-rule="evenodd" clip-rule="evenodd" d="M715.24 186.554C704.358 182.93 693.51 186.116 691.008 193.664C688.506 201.212 695.296 210.266 706.178 213.889C717.059 217.513 727.908 214.327 730.41 206.779C732.912 199.231 726.122 190.177 715.24 186.554Z" fill="#414856"/>
<path fill-rule="evenodd" clip-rule="evenodd" d="M734.529 191.365C734.66 189.105 734.381 186.904 733.748 184.83C737.145 172.196 731.317 155.743 731.295 155.688C730.393 152.995 727.487 151.539 724.8 152.442C722.112 153.345 720.659 156.257 721.56 158.95C721.571 158.977 724.019 165.951 724.543 173.253C723.423 172.569 722.232 171.972 720.976 171.479C720.479 157.051 710.575 141.724 710.548 141.675C708.832 138.916 705.205 138.068 702.452 139.781C701.534 140.356 700.824 141.144 700.354 142.042C699.682 141.029 699.267 140.46 699.256 140.449C697.388 137.789 693.717 137.154 691.062 139.026C688.407 140.898 687.774 144.576 689.642 147.236C689.669 147.275 698.131 158.917 699.568 169.246C695.263 158.939 687.386 150.499 687.353 150.466C685.343 148.233 681.907 148.052 679.672 150.066C677.444 152.081 677.263 155.524 679.274 157.762C679.306 157.801 691.996 171.468 691.406 181.912C691.384 182.301 691.406 182.678 691.461 183.051C690.893 184.507 690.499 186.045 690.308 187.649C686.747 184.288 684.37 181.299 684.354 181.277C682.448 178.956 679.017 178.622 676.701 180.533C674.385 182.443 674.051 185.881 675.958 188.201C675.991 188.245 686.73 201.82 699.409 206.363C702.741 208.585 706.778 210.003 711.187 210.266C723.429 210.983 733.879 202.526 734.529 191.365Z" fill="#C9AB87"/>
<path fill-rule="evenodd" clip-rule="evenodd" d="M734.529 191.365C734.66 189.105 734.381 186.904 733.748 184.83C737.145 172.196 731.317 155.743 731.295 155.688C730.393 152.995 727.487 151.539 724.8 152.442C722.112 153.345 720.659 156.257 721.56 158.95C721.571 158.977 724.019 165.951 724.543 173.253C723.423 172.569 722.232 171.972 720.976 171.479C720.479 157.051 710.575 141.724 710.548 141.675C708.832 138.916 705.205 138.068 702.452 139.781C701.534 140.356 700.824 141.144 700.354 142.042C699.682 141.029 699.267 140.46 699.256 140.449C697.388 137.789 693.717 137.154 691.062 139.026C688.407 140.898 687.774 144.576 689.642 147.236C689.669 147.275 698.131 158.917 699.568 169.246C695.263 158.939 687.386 150.499 687.353 150.466C685.343 148.233 681.907 148.052 679.672 150.066C677.444 152.081 677.263 155.524 679.274 157.762C679.296 157.79 686.583 165.639 689.86 173.986C701.25 185.952 715.939 194.726 732.464 198.853C733.644 196.571 734.365 194.047 734.523 191.365H734.529Z" fill="#414856"/>
<path fill-rule="evenodd" clip-rule="evenodd" d="M713.612 61.8799C698.524 71.4917 689.068 89.0622 690.243 109.151C692.024 139.546 717.463 164.188 747.066 164.188C763.541 164.188 777.826 156.553 786.954 144.549C779.208 149.475 769.987 152.311 759.952 152.311C730.35 152.311 704.905 127.674 703.129 97.2727C702.337 83.7965 706.336 71.4534 713.612 61.8854V61.8799Z" fill="#414856"/>
<path fill-rule="evenodd" clip-rule="evenodd" d="M740.625 54.1128C730.475 54.1128 721.156 57.0083 713.355 62.0441C705.418 71.7873 700.993 84.6559 701.818 98.7725C703.599 129.168 729.039 153.81 758.641 153.81C768.791 153.81 778.11 150.915 785.911 145.879C793.848 136.136 798.273 123.262 797.448 109.151C795.667 78.7553 770.227 54.1128 740.625 54.1128Z" fill="#8BC9A7"/>
<path fill-rule="evenodd" clip-rule="evenodd" d="M704.817 69.023C697.115 64.8904 689.932 61.3216 683.469 58.4205C665.333 50.2702 652.72 47.3528 649.939 51.6003C648.3 54.0963 650.283 58.738 655.178 64.8685C655.937 69.6854 662.645 77.8904 673.587 87.9182C678.383 92.3135 683.999 97.0756 690.276 102.062V102.04V102.018V101.996V101.98V101.958V101.936V101.898V101.876V101.86L690.352 100.907V100.869V100.852V100.831V100.809V100.787C684.316 95.97 678.913 91.3775 674.275 87.13C664.787 78.4378 658.521 71.2618 656.658 66.6803C659.947 70.5557 664.279 74.9456 669.485 79.7241C675.483 85.2197 682.65 91.2352 690.74 97.5573L690.822 97.0537V97.0319L690.827 97.01V96.9881V96.9662V96.9443L690.833 96.9224V96.9005L690.838 96.8786L690.904 96.4954V96.4735L690.909 96.4516V96.4297L690.915 96.4079V96.386L690.92 96.3641V96.3422L690.926 96.3203V96.2984L690.931 96.282V96.2601L690.937 96.2436C683.07 90.0803 676.095 84.2125 670.244 78.8538C664.257 73.3691 659.444 68.4319 656.063 64.2828C656.047 63.6424 656.178 63.0951 656.473 62.6517C658.701 59.2525 669.802 62.0386 685.938 69.2913C690.074 71.1523 694.537 73.3035 699.256 75.7283C699.458 75.4327 699.661 75.1426 699.868 74.858C695.083 72.4003 690.565 70.2163 686.37 68.3334C669.72 60.8508 658.144 58.1742 655.588 62.0715C655.38 62.389 655.233 62.7502 655.151 63.1443C651.157 58.0155 649.551 54.2058 650.862 52.2134C653.288 48.5132 665.377 51.5456 682.961 59.4496C689.32 62.3068 696.383 65.81 703.954 69.866C704.227 69.5759 704.501 69.2858 704.779 69.0066L704.817 69.023ZM791.794 136.847C795.4 139.852 798.721 142.743 801.72 145.49C814.776 157.45 821.735 166.553 819.512 169.952L819.397 170.111C813.765 168.978 805.872 166.132 796.377 161.862C790.931 159.415 784.971 156.492 778.613 153.159L778.367 153.356L778.351 153.367L778.318 153.389L778.301 153.4L778.285 153.411L778.269 153.427L778.252 153.438L778.236 153.449L778.219 153.46L778.203 153.471L778.187 153.482L778.17 153.493L778.154 153.504L778.137 153.515L778.121 153.526L778.028 153.597L778.012 153.608L777.995 153.619L777.979 153.63L777.963 153.641L777.946 153.652L777.93 153.663L777.913 153.673L777.897 153.684L777.881 153.695L777.864 153.706L777.848 153.717L777.832 153.728L777.815 153.739L777.799 153.75L777.782 153.761L777.766 153.772L777.75 153.783L777.733 153.794L777.717 153.805L777.7 153.816L777.684 153.827L777.668 153.838L777.651 153.849L777.635 153.86L777.591 153.898C784.135 157.341 790.27 160.351 795.869 162.869C804.855 166.909 812.487 169.662 818.239 170.894C814.41 172.541 804.14 169.618 790.008 163.269C785.332 161.167 780.241 158.687 774.827 155.868L774.811 155.879L774.794 155.89L774.778 155.901L774.762 155.912L774.745 155.923L774.729 155.934L774.712 155.945L774.696 155.956L774.68 155.967L774.663 155.978L774.647 155.989L774.63 156L774.614 156.011L774.598 156.022L774.581 156.033L774.565 156.044L774.548 156.055L774.532 156.065L774.15 156.312L774.133 156.323L774.117 156.334L774.101 156.345L774.084 156.356L774.068 156.367L774.051 156.377L774.035 156.388L774.019 156.399L774.002 156.41L773.986 156.421L773.969 156.432L773.953 156.443L773.937 156.454L773.92 156.465L773.822 156.525L773.806 156.536L773.789 156.547C779.421 159.486 784.709 162.07 789.554 164.249C805.085 171.228 816.207 174.03 819.703 171.206C824.734 172.103 828.099 171.665 829.383 169.711C832.169 165.464 824.483 155.025 809.81 141.582C805.456 137.592 800.485 133.328 794.99 128.872C794.864 129.266 794.739 129.655 794.607 130.044C799.95 134.384 804.79 138.544 809.034 142.436C823.259 155.463 830.841 165.376 828.416 169.082C827.389 170.647 824.63 171.009 820.462 170.302C822.636 166.274 815.601 156.815 802.37 144.697C799.305 141.889 795.908 138.933 792.215 135.862C792.056 136.191 791.898 136.513 791.734 136.831L791.794 136.847Z" fill="black"/>
<path fill-rule="evenodd" clip-rule="evenodd" d="M704.817 69.0231C704.539 69.3077 704.266 69.5923 703.992 69.8824C717.649 77.2007 732.961 86.3199 748.803 96.7527C766.18 108.187 781.868 119.66 794.662 130.06C794.793 129.671 794.924 129.283 795.044 128.889C782.273 118.527 766.677 107.136 749.431 95.7839C733.671 85.4112 718.43 76.3249 704.812 69.0176L704.817 69.0231ZM699.895 74.8799C713.864 82.0559 730.088 91.5527 746.951 102.653C764.371 114.121 779.957 125.632 792.269 135.873C792.111 136.201 791.953 136.524 791.789 136.842C779.481 126.59 763.858 115.046 746.372 103.535C729.476 92.4121 713.241 82.9098 699.284 75.7447C699.486 75.4492 699.688 75.159 699.895 74.8744V74.8799ZM777.618 153.936L777.662 153.898L777.613 153.936H777.618ZM778.361 153.356L778.607 153.159L778.361 153.356Z" fill="white"/>
<path fill-rule="evenodd" clip-rule="evenodd" d="M761.935 62.3725C760.619 61.3052 759.176 60.6319 757.909 60.4075C756.527 60.1557 755.314 60.4403 754.621 61.2997C753.921 62.1645 753.899 63.4071 754.429 64.7098C754.916 65.9031 755.871 67.1839 757.188 68.2513C758.504 69.3186 759.947 69.9919 761.214 70.2218C762.596 70.4736 763.809 70.1889 764.503 69.3296C765.202 68.4647 765.224 67.2222 764.694 65.9195C764.208 64.7262 763.252 63.4509 761.935 62.378V62.3725ZM757.701 61.5351C758.789 61.7266 760.045 62.3233 761.209 63.2702C762.378 64.2172 763.219 65.3283 763.628 66.3464C763.994 67.2605 764.016 68.0871 763.607 68.5961C763.191 69.1052 762.383 69.2584 761.416 69.0833C760.329 68.8917 759.073 68.3005 757.904 67.3536C756.735 66.4066 755.899 65.2955 755.484 64.2774C755.112 63.3633 755.09 62.5367 755.505 62.0277C755.921 61.5186 756.729 61.3654 757.696 61.5405L757.701 61.5351Z" fill="#414856"/>
<path fill-rule="evenodd" clip-rule="evenodd" d="M754.97 67.7203C754.391 67.2496 753.747 66.9485 753.179 66.8445C752.49 66.7187 751.878 66.8719 751.518 67.3262C751.152 67.7805 751.13 68.41 751.392 69.0559C751.616 69.5923 752.042 70.1616 752.621 70.6323C753.2 71.1031 753.845 71.4041 754.413 71.5081C755.101 71.634 755.713 71.4807 756.079 71.0264C756.445 70.5721 756.467 69.9426 756.205 69.2968C755.986 68.7603 755.555 68.1911 754.976 67.7203H754.97ZM752.971 67.9776C753.353 68.0488 753.818 68.2677 754.244 68.618C754.675 68.9683 754.981 69.3734 755.134 69.7347C755.238 69.9919 755.26 70.1999 755.178 70.3039C755.096 70.4079 754.883 70.4243 754.615 70.3751C754.227 70.3039 753.774 70.085 753.342 69.7347C752.911 69.3843 752.599 68.9793 752.452 68.618C752.348 68.3608 752.326 68.1528 752.408 68.0488C752.49 67.9448 752.703 67.9283 752.971 67.9776Z" fill="#414856"/>
<path fill-rule="evenodd" clip-rule="evenodd" d="M763.3 129.179C762.721 128.708 762.077 128.407 761.509 128.303C760.82 128.177 760.214 128.33 759.843 128.785C759.477 129.239 759.455 129.868 759.717 130.514C759.935 131.051 760.367 131.62 760.946 132.091C761.525 132.561 762.17 132.863 762.738 132.967C763.426 133.092 764.038 132.939 764.404 132.485C764.77 132.031 764.792 131.401 764.53 130.755C764.311 130.219 763.885 129.649 763.3 129.179ZM761.301 129.436C761.689 129.507 762.148 129.726 762.574 130.076C763.005 130.427 763.317 130.832 763.464 131.193C763.568 131.45 763.59 131.658 763.508 131.762C763.426 131.866 763.219 131.883 762.945 131.833C762.563 131.762 762.104 131.543 761.673 131.193C761.241 130.843 760.935 130.438 760.782 130.076C760.678 129.819 760.657 129.611 760.738 129.507C760.82 129.403 761.028 129.387 761.301 129.431V129.436Z" fill="#414856"/>
<path fill-rule="evenodd" clip-rule="evenodd" d="M721.238 122.249C719.921 121.182 718.479 120.508 717.212 120.279C715.83 120.027 714.617 120.311 713.923 121.171C713.224 122.036 713.202 123.278 713.732 124.581C714.218 125.774 715.174 127.05 716.491 128.122C717.807 129.19 719.249 129.863 720.517 130.087C721.899 130.339 723.111 130.055 723.805 129.195C724.504 128.33 724.526 127.088 723.996 125.785C723.51 124.586 722.554 123.311 721.238 122.244V122.249ZM717.004 121.412C718.091 121.603 719.342 122.194 720.511 123.141C721.68 124.088 722.516 125.194 722.931 126.218C723.303 127.132 723.325 127.958 722.909 128.467C722.494 128.976 721.686 129.13 720.719 128.954C719.632 128.763 718.375 128.172 717.206 127.225C716.037 126.278 715.196 125.172 714.786 124.148C714.42 123.234 714.393 122.408 714.808 121.899C715.223 121.39 716.032 121.236 716.999 121.412H717.004Z" fill="#414856"/>
<path fill-rule="evenodd" clip-rule="evenodd" d="M509.613 230.726C509.313 230.726 509.073 230.967 509.073 231.268C509.073 231.569 509.313 231.81 509.613 231.81C509.613 231.81 510.384 231.963 511.842 232.297L512.083 231.241C510.542 230.885 509.619 230.726 509.613 230.726ZM515.666 232.15C515.377 232.073 515.082 232.248 515.005 232.533C514.929 232.817 515.098 233.118 515.388 233.195L517.884 233.901L520.714 234.771C520.998 234.865 521.304 234.706 521.391 234.421C521.484 234.137 521.325 233.83 521.041 233.742L518.184 232.861L515.661 232.15H515.666ZM524.669 234.963C524.385 234.865 524.079 235.012 523.98 235.291C523.882 235.571 524.03 235.883 524.308 235.981C528.837 237.585 534.032 239.72 539.325 242.489C543.597 244.723 547.945 247.377 552.086 250.508C552.321 250.689 552.665 250.64 552.84 250.404C553.02 250.163 552.971 249.824 552.736 249.649C548.551 246.485 544.149 243.798 539.822 241.537C534.458 238.729 529.219 236.578 524.663 234.963H524.669Z" fill="#414856"/>
<path fill-rule="evenodd" clip-rule="evenodd" d="M519.802 487.026C519.802 495.384 512.973 502.226 504.632 502.226C512.973 502.226 519.802 509.068 519.802 517.432C519.802 509.074 526.63 502.232 534.972 502.232C526.63 502.232 519.802 495.39 519.802 487.031V487.026Z" fill="#414856"/>
<path fill-rule="evenodd" clip-rule="evenodd" d="M791.155 189.389C791.155 193.675 787.659 197.178 783.381 197.178C787.659 197.178 791.155 200.687 791.155 204.973C791.155 200.687 794.651 197.178 798.928 197.178C794.651 197.178 791.155 193.67 791.155 189.384V189.389Z" fill="#414856"/>
<path fill-rule="evenodd" clip-rule="evenodd" d="M306.538 158.561C306.538 167.949 298.874 175.623 289.511 175.623C298.874 175.623 306.538 183.302 306.538 192.69C306.538 183.308 314.202 175.628 323.565 175.628C314.202 175.628 306.538 167.949 306.538 158.561Z" fill="#414856"/>
<path fill-rule="evenodd" clip-rule="evenodd" d="M119.059 255.484C119.059 261.111 114.465 265.714 108.85 265.714C114.465 265.714 119.059 270.318 119.059 275.944C119.059 270.318 123.653 265.714 129.269 265.714C123.653 265.714 119.059 261.111 119.059 255.484Z" fill="#414856"/>
<path fill-rule="evenodd" clip-rule="evenodd" d="M672.647 111.477C673.041 111.477 673.357 111.159 673.357 110.765C673.357 110.371 673.041 110.054 672.647 110.054H668.146C667.753 110.054 667.436 110.371 667.436 110.765C667.436 111.159 667.753 111.477 668.146 111.477H672.647Z" fill="#414856"/>
<path fill-rule="evenodd" clip-rule="evenodd" d="M672.647 106.868C673.041 106.868 673.357 106.551 673.357 106.156C673.357 105.762 673.041 105.445 672.647 105.445H652.752C652.359 105.445 652.042 105.762 652.042 106.156C652.042 106.551 652.359 106.868 652.752 106.868H672.647Z" fill="#414856"/>
<path fill-rule="evenodd" clip-rule="evenodd" d="M674.423 327.539C671.183 327.539 668.561 330.232 668.561 333.56C668.561 336.888 671.189 339.581 674.423 339.581C677.657 339.581 680.284 336.883 680.284 333.56C680.284 330.238 677.657 327.539 674.423 327.539Z" fill="#414856"/>
<path fill-rule="evenodd" clip-rule="evenodd" d="M376.384 448.852C376.777 448.852 377.094 448.535 377.094 448.141C377.094 447.747 376.777 447.429 376.384 447.429H370.381C369.987 447.429 369.67 447.747 369.67 448.141C369.67 448.535 369.987 448.852 370.381 448.852H376.384Z" fill="#414856"/>
<path fill-rule="evenodd" clip-rule="evenodd" d="M376.384 454.403C376.777 454.403 377.094 454.085 377.094 453.691C377.094 453.297 376.777 452.98 376.384 452.98H326.827C326.433 452.98 326.117 453.297 326.117 453.691C326.117 454.085 326.433 454.403 326.827 454.403H376.384Z" fill="#414856"/>
<path fill-rule="evenodd" clip-rule="evenodd" d="M376.384 459.953C376.777 459.953 377.094 459.636 377.094 459.241C377.094 458.847 376.777 458.53 376.384 458.53H360.805C360.411 458.53 360.094 458.847 360.094 459.241C360.094 459.636 360.411 459.953 360.805 459.953H376.384Z" fill="#414856"/>
<path fill-rule="evenodd" clip-rule="evenodd" d="M365.12 448.852C365.514 448.852 365.831 448.535 365.831 448.141C365.831 447.747 365.514 447.429 365.12 447.429H335.649C335.256 447.429 334.939 447.747 334.939 448.141C334.939 448.535 335.256 448.852 335.649 448.852H365.12Z" fill="#414856"/>
<path fill-rule="evenodd" clip-rule="evenodd" d="M357.232 459.953C357.626 459.953 357.942 459.636 357.942 459.241C357.942 458.847 357.626 458.53 357.232 458.53H352.731C352.338 458.53 352.021 458.847 352.021 459.241C352.021 459.636 352.338 459.953 352.731 459.953H357.232Z" fill="#414856"/>
<path fill-rule="evenodd" clip-rule="evenodd" d="M558.739 181.294C559.111 181.414 559.51 181.212 559.63 180.845C559.75 180.473 559.553 180.073 559.182 179.953C559.182 179.953 557.636 179.493 555.139 179.066C554.757 179 554.386 179.263 554.32 179.646C554.255 180.029 554.517 180.401 554.899 180.467C557.325 180.883 558.739 181.299 558.739 181.299V181.294ZM550.453 179.892C550.84 179.925 551.185 179.635 551.217 179.241C551.25 178.847 550.961 178.508 550.567 178.475L548.639 178.343C547.983 178.31 547.295 178.289 546.574 178.283C546.186 178.283 545.864 178.595 545.858 178.984C545.858 179.378 546.17 179.695 546.563 179.701C547.23 179.706 547.907 179.728 548.562 179.761L550.447 179.892H550.453ZM544.433 179.717C544.82 179.706 545.132 179.378 545.121 178.989C545.11 178.601 544.782 178.289 544.394 178.3C540.319 178.425 535.763 179.055 531.24 180.659C526.695 182.262 522.178 184.846 518.19 188.869C517.917 189.148 517.917 189.597 518.19 189.876C518.469 190.15 518.916 190.15 519.19 189.876C523.013 186.023 527.345 183.543 531.705 182.005C536.08 180.456 540.489 179.843 544.427 179.723L544.433 179.717Z" fill="#EA592F"/>
<path fill-rule="evenodd" clip-rule="evenodd" d="M588.238 242.051C588.473 242.232 588.812 242.188 588.992 241.953C589.172 241.718 589.129 241.378 588.894 241.198C588.861 241.17 577.504 232.144 572.883 240.809C572.746 241.072 572.844 241.4 573.106 241.542C573.369 241.679 573.696 241.581 573.833 241.318C577.843 233.803 588.205 242.035 588.238 242.057V242.051Z" fill="#414856"/>
<path fill-rule="evenodd" clip-rule="evenodd" d="M556.604 301.769C556.604 301.468 556.358 301.227 556.063 301.227C555.768 301.227 555.522 301.468 555.522 301.769C555.522 301.786 555.593 306.482 556.303 313.724C556.331 314.019 556.598 314.238 556.893 314.211C557.188 314.184 557.407 313.915 557.379 313.62C556.68 306.46 556.609 301.78 556.609 301.769H556.604ZM558.379 322.077C558.341 321.781 558.068 321.573 557.773 321.611C557.478 321.65 557.27 321.923 557.308 322.219C559.341 336.68 563.678 355.964 572.904 370.212C582.196 384.564 596.41 393.815 618.152 388.018C618.441 387.941 618.611 387.646 618.534 387.356C618.458 387.066 618.163 386.896 617.873 386.973C596.705 392.616 582.857 383.606 573.806 369.626C564.689 355.548 560.395 336.423 558.374 322.071L558.379 322.077ZM624.909 384.646C624.631 384.75 624.494 385.068 624.598 385.347C624.707 385.626 625.018 385.763 625.297 385.653C626.827 385.029 628.269 384.416 629.782 383.749C630.05 383.623 630.17 383.305 630.05 383.032C629.924 382.763 629.607 382.643 629.334 382.763C627.843 383.42 626.417 384.028 624.909 384.641V384.646Z" fill="white"/>
<path fill-rule="evenodd" clip-rule="evenodd" d="M519.769 188.103C519.976 187.895 519.976 187.55 519.769 187.337C519.561 187.129 519.217 187.129 519.004 187.337C519.004 187.337 517.971 188.185 516.229 189.805C516.01 190.008 515.999 190.353 516.201 190.572C516.404 190.79 516.748 190.801 516.966 190.599C518.725 188.968 519.769 188.108 519.769 188.108V188.103ZM513.115 194.343C513.323 194.129 513.317 193.785 513.11 193.582C512.897 193.374 512.552 193.38 512.35 193.588C511.58 194.37 510.766 195.219 509.914 196.127C509.144 196.948 508.335 197.835 507.494 198.777C507.297 199.001 507.314 199.34 507.538 199.537C507.762 199.734 508.1 199.718 508.302 199.494C509.122 198.574 509.925 197.693 510.706 196.861C511.558 195.947 512.372 195.104 513.126 194.337L513.115 194.343ZM501.846 207.277C502.026 207.042 501.982 206.702 501.747 206.522C501.512 206.341 501.174 206.385 500.993 206.62C497.601 211.016 494.094 216.084 490.844 221.728C487.582 227.382 484.573 233.622 482.169 240.355C482.071 240.634 482.218 240.946 482.497 241.05C482.775 241.148 483.087 241.001 483.19 240.721C485.572 234.049 488.555 227.869 491.783 222.275C495.012 216.67 498.491 211.645 501.856 207.283L501.846 207.277Z" fill="black"/>
<path fill-rule="evenodd" clip-rule="evenodd" d="M522.145 193.609C517.535 193.051 512.236 196.204 510.313 200.66C508.39 205.115 510.564 209.177 515.175 209.74C519.785 210.299 525.084 207.146 527.007 202.69C528.93 198.235 526.756 194.173 522.145 193.609Z" fill="#8BC9A7"/>
<path fill-rule="evenodd" clip-rule="evenodd" d="M592.133 198.038C591.723 198.963 591.363 199.915 591.062 200.889C590.554 202.526 590.204 204.239 590.035 206.002H591.122C591.292 204.349 591.619 202.745 592.095 201.212C592.39 200.265 592.739 199.34 593.138 198.448C592.799 198.317 592.455 198.18 592.138 198.043L592.133 198.038ZM589.909 208.443V208.498C589.909 215.581 592.777 221.996 597.41 226.638C602.042 231.279 608.444 234.153 615.513 234.153C620.429 234.153 625.029 232.757 628.935 230.343C631.967 228.466 634.583 225.97 636.604 223.036L635.578 222.631C633.666 225.351 631.207 227.672 628.372 229.424C624.636 231.734 620.233 233.064 615.513 233.064C608.739 233.064 602.61 230.316 598.175 225.871C593.739 221.427 590.997 215.28 590.997 208.498V208.443H589.915H589.909Z" fill="#414856"/>
<path fill-rule="evenodd" clip-rule="evenodd" d="M601.299 103.54C599.557 102.221 597.694 101.394 596.104 101.115C594.373 100.809 592.914 101.154 592.149 102.215C591.39 103.277 591.505 104.81 592.308 106.419C593.04 107.892 594.367 109.468 596.115 110.782C597.858 112.101 599.715 112.933 601.305 113.207C603.037 113.513 604.501 113.168 605.26 112.106C606.019 111.044 605.904 109.512 605.101 107.903C604.364 106.43 603.042 104.854 601.294 103.54H601.299ZM595.984 102.511C597.344 102.746 598.961 103.48 600.507 104.646C602.053 105.817 603.217 107.18 603.845 108.444C604.402 109.572 604.522 110.59 604.074 111.22C603.621 111.849 602.643 112.035 601.431 111.822C600.07 111.586 598.453 110.853 596.907 109.687C595.361 108.521 594.198 107.153 593.57 105.894C593.013 104.766 592.887 103.748 593.34 103.119C593.794 102.489 594.772 102.303 595.984 102.516V102.511Z" fill="#414856"/>
<path fill-rule="evenodd" clip-rule="evenodd" d="M521.812 194.523C519.998 198.35 515.257 201.081 511.28 200.594C515.257 201.075 517.027 204.601 515.213 208.427C517.027 204.601 521.768 201.869 525.745 202.356C521.768 201.869 519.998 198.344 521.812 194.523Z" fill="#414856"/>
<path d="M559.813 272.091L566.116 280.174L553.305 290.203L547.003 282.12L559.813 272.091Z" fill="#8BC9A7"/>
<path fill-rule="evenodd" clip-rule="evenodd" d="M405.407 217.737C405.325 217.907 376.903 278.758 319.419 225.242L318.452 226.282C377.356 281.123 406.598 218.537 406.68 218.356L405.407 217.737Z" fill="#8BC9A7"/>
<path fill-rule="evenodd" clip-rule="evenodd" d="M385.075 234.821C385.141 235.204 385.507 235.467 385.895 235.401C386.277 235.335 386.539 234.969 386.474 234.58C386.463 234.514 382.388 210.665 369.288 218.307C368.95 218.504 368.835 218.936 369.031 219.275C369.228 219.615 369.66 219.73 369.998 219.533C381.328 212.921 385.07 234.755 385.075 234.821Z" fill="#8BC9A7"/>
<path fill-rule="evenodd" clip-rule="evenodd" d="M370.637 238.849C370.747 239.227 371.14 239.441 371.517 239.331C371.888 239.222 372.107 238.827 371.998 238.45C371.976 238.373 363.694 210.063 353.785 220.211C353.512 220.491 353.512 220.94 353.791 221.213C354.069 221.487 354.517 221.487 354.79 221.208C363.017 212.784 370.61 238.773 370.632 238.849H370.637Z" fill="#8BC9A7"/>
<path fill-rule="evenodd" clip-rule="evenodd" d="M356.041 238.975C356.216 239.326 356.648 239.462 356.997 239.282C357.347 239.107 357.484 238.674 357.303 238.324C357.265 238.253 344.089 211.974 334.824 225.707C334.606 226.03 334.693 226.473 335.016 226.692C335.338 226.911 335.78 226.824 335.999 226.501C343.903 214.782 356.009 238.899 356.041 238.97V238.975Z" fill="#8BC9A7"/>
<path fill-rule="evenodd" clip-rule="evenodd" d="M592.444 417.072C592.444 416.935 594.411 368.181 539.5 383.442L539.227 382.451C595.493 366.813 593.477 416.957 593.477 417.1L592.45 417.072H592.444Z" fill="#8BC9A7"/>
<path fill-rule="evenodd" clip-rule="evenodd" d="M585.026 399.25C585.196 399.026 585.518 398.982 585.747 399.151C585.971 399.321 586.015 399.65 585.846 399.874C585.818 399.912 575.237 413.925 569.337 404.614C569.184 404.373 569.255 404.056 569.496 403.903C569.736 403.749 570.053 403.82 570.206 404.061C575.308 412.119 584.999 399.288 585.026 399.255V399.25Z" fill="#8BC9A7"/>
<path fill-rule="evenodd" clip-rule="evenodd" d="M577.061 391.817C577.258 391.614 577.58 391.603 577.788 391.8C577.995 391.997 578.001 392.32 577.804 392.528C577.766 392.572 562.989 408.052 559.985 398.193C559.903 397.92 560.051 397.635 560.324 397.548C560.597 397.466 560.881 397.613 560.968 397.887C563.465 406.076 577.029 391.855 577.067 391.817H577.061Z" fill="#8BC9A7"/>
<path fill-rule="evenodd" clip-rule="evenodd" d="M567.693 386.852C567.923 386.688 568.245 386.743 568.414 386.973C568.578 387.202 568.523 387.525 568.294 387.69C568.245 387.728 550.988 400.257 549.59 388.297C549.557 388.013 549.759 387.755 550.043 387.728C550.327 387.695 550.584 387.898 550.611 388.182C551.802 398.385 567.649 386.885 567.693 386.852Z" fill="#8BC9A7"/>
<path fill-rule="evenodd" clip-rule="evenodd" d="M255.517 293.444C256.435 294.664 257.369 295.874 258.314 297.056C259.265 298.244 260.221 299.399 261.171 300.516L242.958 315.382L217.885 335.772C216.393 334.737 214.94 333.692 213.542 332.646C212.193 331.645 210.871 330.626 209.582 329.597L255.523 293.444H255.517ZM259.155 296.378C258.139 295.102 257.096 293.761 256.047 292.355L255.719 291.911C239.757 304.468 223.784 317.013 207.844 329.592L208.374 330.019C209.838 331.196 211.346 332.362 212.897 333.517C214.438 334.666 216.011 335.799 217.601 336.894L217.934 337.124L243.636 316.225L262.712 300.653L262.346 300.231C261.28 298.994 260.215 297.708 259.15 296.383L259.155 296.378ZM287.823 339.647C284.082 339.045 280.558 339.286 277.887 340.162C275.101 341.07 273.211 342.69 272.872 344.792C272.533 346.894 273.828 349.024 276.188 350.764C278.439 352.423 281.694 353.753 285.42 354.36H285.464C289.206 354.968 292.734 354.727 295.4 353.857C298.186 352.943 300.082 351.328 300.415 349.226C300.748 347.124 299.459 344.995 297.099 343.254C294.838 341.59 291.565 340.255 287.823 339.653V339.647ZM278.226 341.191C280.744 340.364 284.087 340.14 287.654 340.714C291.221 341.289 294.324 342.548 296.46 344.119C298.492 345.619 299.617 347.381 299.35 349.045C299.082 350.709 297.465 352.034 295.062 352.817C292.549 353.638 289.217 353.862 285.66 353.298H285.633C282.066 352.718 278.963 351.459 276.827 349.888C274.795 348.389 273.67 346.626 273.937 344.962C274.205 343.298 275.822 341.973 278.22 341.191H278.226ZM212.597 264.078C216.295 264.078 220.201 265.681 223.517 268.27C226.822 270.848 229.559 274.417 230.946 278.364C231.574 280.154 231.875 281.872 231.875 283.46C231.875 285.595 231.334 287.505 230.334 289.043C229.324 290.592 227.849 291.769 225.997 292.42C224.915 292.803 223.702 293.006 222.381 293.006C218.677 293.006 214.776 291.402 211.461 288.813C208.156 286.235 205.413 282.666 204.031 278.72C203.403 276.93 203.103 275.211 203.103 273.629C203.103 271.489 203.644 269.584 204.649 268.046C205.659 266.491 207.134 265.32 208.986 264.669C210.068 264.286 211.286 264.083 212.608 264.083L212.597 264.078ZM209.336 265.687C210.303 265.347 211.395 265.161 212.597 265.161C216.055 265.161 219.72 266.678 222.856 269.124C226.008 271.587 228.613 274.981 229.93 278.72C230.515 280.389 230.793 281.987 230.793 283.46C230.793 285.387 230.318 287.094 229.427 288.452C228.548 289.798 227.259 290.827 225.631 291.397C224.664 291.736 223.571 291.922 222.37 291.922C218.917 291.922 215.246 290.406 212.111 287.959C208.959 285.502 206.348 282.108 205.037 278.364C204.452 276.694 204.173 275.096 204.173 273.629C204.173 271.702 204.654 269.995 205.539 268.632C206.419 267.285 207.708 266.256 209.336 265.687ZM202.054 291.577C201.36 291.577 200.721 291.687 200.158 291.884C199.175 292.229 198.388 292.853 197.853 293.679C197.323 294.489 197.039 295.496 197.039 296.619C197.039 297.44 197.192 298.332 197.52 299.251C198.23 301.271 199.634 303.105 201.322 304.424C203.026 305.754 205.037 306.581 206.948 306.581C207.642 306.581 208.281 306.471 208.85 306.274C209.833 305.929 210.619 305.305 211.155 304.479C211.685 303.669 211.969 302.661 211.969 301.539C211.969 300.718 211.816 299.826 211.488 298.907C210.778 296.887 209.379 295.059 207.686 293.739C205.982 292.409 203.966 291.583 202.059 291.583L202.054 291.577ZM200.508 292.907C199.754 293.176 199.153 293.646 198.749 294.27C198.334 294.905 198.11 295.71 198.11 296.619C198.11 297.325 198.246 298.096 198.525 298.896C199.164 300.718 200.437 302.371 201.972 303.57C203.491 304.758 205.266 305.491 206.932 305.491C207.5 305.491 208.019 305.404 208.478 305.245C209.232 304.982 209.827 304.506 210.237 303.882C210.652 303.247 210.876 302.443 210.876 301.534C210.876 300.828 210.74 300.056 210.461 299.251C209.822 297.429 208.549 295.776 207.014 294.577C205.495 293.389 203.715 292.656 202.048 292.656C201.475 292.656 200.956 292.743 200.503 292.902L200.508 292.907ZM270.103 310.045L228.646 342.674C229.717 343.304 230.804 343.933 231.918 344.552C233.251 345.301 234.601 346.029 235.95 346.741L237.753 347.677L257.375 331.721L276.636 316.012C275.598 315.12 274.544 314.195 273.478 313.226C272.37 312.219 271.239 311.157 270.103 310.051V310.045ZM274.205 312.421C272.981 311.304 271.747 310.144 270.518 308.94L270.179 308.611C255.681 319.98 241.194 331.371 226.74 342.794L227.417 343.2C228.734 343.982 230.061 344.749 231.389 345.493C232.716 346.237 234.071 346.971 235.447 347.699L237.884 348.958L258.052 332.559L278.318 316.028L277.821 315.607C276.625 314.589 275.412 313.532 274.2 312.427L274.205 312.421ZM287.13 324.239L250.115 353.37C254.381 355.116 258.571 356.61 262.624 357.831C274.653 361.465 285.48 362.757 293.903 361.662C302.207 360.584 308.15 357.185 310.543 351.421C310.723 350.983 310.887 350.523 311.034 350.042C313.422 342.105 306.899 337.709 296.138 330.457C293.385 328.601 290.353 326.554 287.141 324.233L287.13 324.239ZM296.728 329.565C293.898 327.654 290.768 325.552 287.436 323.128L287.108 322.887C274.058 333.128 261.029 343.397 248.001 353.66L248.847 354.016C253.458 355.937 257.965 357.557 262.313 358.871C274.478 362.543 285.464 363.846 294.035 362.735C302.731 361.607 308.98 357.989 311.532 351.837C311.734 351.355 311.908 350.857 312.061 350.354C314.678 341.661 307.904 337.096 296.728 329.565ZM200.322 321.568L224.32 302.059C232.836 295.124 241.385 288.156 248.028 282.704C244.259 277.329 240.014 272.502 235.524 268.303C226.346 259.71 216.137 253.705 206.785 250.859C197.514 248.04 189.102 248.324 183.437 252.271C182.547 252.889 181.722 253.601 180.979 254.4C175.822 259.923 174.817 271.445 178.029 284.232C180.946 295.836 187.343 308.453 197.285 318.579L198.935 320.227L200.317 321.562L200.322 321.568ZM198.181 321.004L200.268 323.007L224.997 302.902C233.896 295.655 242.685 288.49 249.099 283.23L249.486 282.912L249.202 282.502C245.318 276.902 240.921 271.883 236.261 267.515C226.964 258.812 216.601 252.72 207.096 249.83C197.509 246.912 188.774 247.241 182.82 251.384C181.875 252.041 180.995 252.802 180.192 253.667C174.79 259.463 173.686 271.363 176.986 284.494C179.941 296.263 186.436 309.066 196.52 319.34L198.186 321.004H198.181Z" fill="#8BC9A7"/>
<path d="M192.723 553.843C127.207 553.843 74.0958 499.311 74.0958 432.043C74.0958 364.774 127.207 310.242 192.723 310.242C258.24 310.242 311.351 364.774 311.351 432.043C311.351 499.311 258.24 553.843 192.723 553.843Z" fill="#8BC9A7"/>
<path fill-rule="evenodd" clip-rule="evenodd" d="M79.0342 397.192C75.8276 408.238 74.0959 419.929 74.0959 432.043C74.0959 499.314 127.21 553.843 192.724 553.843C258.238 553.843 311.346 499.309 311.346 432.043C311.346 407.679 304.375 384.991 292.374 365.954C290.762 365.707 289.364 366.162 288.255 367.486C275.614 382.588 299.912 511.214 250.573 497.814C201.229 484.415 140.943 328.508 128.308 357.256C115.667 385.998 140.462 466.396 125.106 476.932C109.751 487.464 79.4603 461.152 79.0342 397.192Z" fill="#414856"/>
<path fill-rule="evenodd" clip-rule="evenodd" d="M41.0083 272.917C-11.2587 281.051 4.34821 358.4 75.0626 447.621C74.429 442.519 74.1012 437.319 74.1012 432.043C74.1012 419.919 75.8274 408.21 79.0395 397.164C61.0836 360.469 62.9191 333.314 87.6104 329.472C123.314 323.916 193.286 369.194 243.892 430.609C294.499 492.018 306.577 546.311 270.867 551.867C261.149 553.378 248.896 551.123 235.19 545.802C222.003 550.997 207.691 553.848 192.723 553.848C189.872 553.848 187.048 553.739 184.251 553.536C235.584 591.464 285.583 613.38 317.475 608.416C371.342 600.035 353.124 518.133 276.778 425.485C200.431 332.838 94.8758 264.532 41.0137 272.917H41.0083Z" fill="#EA592F"/>
<path fill-rule="evenodd" clip-rule="evenodd" d="M31.7329 274.817C23.9431 276.027 17.6119 278.758 12.7119 282.808C7.15082 287.412 3.43622 293.718 1.52975 301.441C-0.365814 309.093 -0.491486 318.152 1.08722 328.349C6.35873 362.352 30.6786 409.261 71.8618 459.242C74.3473 462.257 76.8711 465.252 79.4167 468.218C78.996 466.823 78.6082 465.416 78.2313 463.998C76.5706 462.033 74.9154 460.057 73.2766 458.07C32.301 408.347 8.11774 361.761 2.89542 328.07C1.35495 318.114 1.46967 309.296 3.30511 301.879C5.11871 294.539 8.62576 288.567 13.8754 284.226C18.5241 280.378 24.5549 277.789 32.006 276.629C58.7076 272.474 98.3394 287.401 140.823 314.895C183.415 342.455 228.816 382.632 266.923 428.879C285.414 451.316 300.481 473.112 311.936 493.375L313.542 492.505C302.032 472.132 286.9 450.232 268.338 427.708C230.105 381.313 184.551 341.005 141.811 313.346C98.9676 285.622 58.8824 270.591 31.722 274.817H31.7329ZM166.23 550.789C177.018 559.103 187.791 566.739 198.388 573.598C241.227 601.322 281.312 616.352 308.472 612.127C316.262 610.917 322.588 608.186 327.488 604.135C333.054 599.532 336.764 593.232 338.676 585.503C340.566 577.856 340.697 568.797 339.118 558.6C337.381 547.373 333.563 534.74 327.75 521.056L326.139 521.926C331.853 535.402 335.6 547.833 337.315 558.879C338.856 568.835 338.741 577.654 336.906 585.065C335.087 592.405 331.58 598.371 326.33 602.718C321.681 606.566 315.65 609.155 308.199 610.315C281.498 614.47 241.871 599.543 199.388 572.054C189.839 565.874 180.149 559.059 170.43 551.686C169.021 551.413 167.623 551.117 166.235 550.789H166.23ZM324.8 514.389C323.347 511.23 321.79 508.028 320.141 504.777L318.535 505.647C320.19 508.899 321.741 512.112 323.194 515.265L324.806 514.394L324.8 514.389ZM78.3351 331.365C96.4165 328.552 123.069 338.536 151.524 356.955C155.627 359.61 159.767 362.445 163.93 365.434L162.892 366.95C158.746 363.967 154.621 361.148 150.535 358.504C122.435 340.32 96.2363 330.44 78.6191 333.183C73.7355 333.938 69.786 335.64 66.7487 338.153C63.3236 340.983 61.0348 344.891 59.8439 349.691C58.6366 354.563 58.5602 360.376 59.5762 366.933C61.4499 379.03 67.0328 393.656 76.079 409.759C75.9096 410.706 75.7458 411.659 75.5983 412.611C65.7818 395.528 59.7455 379.999 57.7626 367.213C56.7083 360.409 56.7957 354.36 58.0576 349.253C59.3413 344.064 61.8378 339.833 65.5797 336.735C68.8683 334.015 73.1127 332.181 78.3296 331.371L78.3351 331.365ZM225.139 549.229C226.09 548.95 227.035 548.659 227.974 548.358C240.883 553.181 252.403 555.184 261.592 553.755C266.47 553 270.419 551.298 273.462 548.785C276.887 545.95 279.176 542.047 280.367 537.247C281.574 532.375 281.651 526.562 280.635 520.005C277.412 499.199 263.23 470.939 239.282 440.483L240.675 439.284C264.853 470.019 279.171 498.608 282.443 519.726C283.497 526.529 283.41 532.578 282.148 537.685C280.864 542.868 278.373 547.105 274.631 550.203C271.343 552.923 267.098 554.757 261.876 555.567C251.874 557.122 239.249 554.763 225.145 549.223L225.139 549.229ZM186.611 383.229L185.524 384.717C181.7 381.461 177.86 378.324 174.019 375.319L175.057 373.803C178.914 376.819 182.765 379.966 186.605 383.234L186.611 383.229Z" fill="#414856"/>
<path fill-rule="evenodd" clip-rule="evenodd" d="M251.152 347.075C249.055 345.367 246.744 344.294 244.723 343.933C242.516 343.533 240.582 343.982 239.473 345.356C238.359 346.73 238.326 348.717 239.167 350.802C239.943 352.707 241.472 354.749 243.57 356.451C245.668 358.154 247.978 359.232 250 359.593C252.207 359.993 254.14 359.544 255.249 358.17C256.364 356.791 256.396 354.809 255.555 352.724C254.78 350.813 253.25 348.777 251.152 347.075ZM244.395 345.739C246.127 346.046 248.131 346.993 249.994 348.509C251.857 350.02 253.201 351.788 253.856 353.424C254.446 354.886 254.479 356.199 253.824 357.015C253.163 357.831 251.873 358.071 250.327 357.792C248.596 357.486 246.591 356.539 244.723 355.028C242.86 353.517 241.516 351.744 240.861 350.113C240.271 348.651 240.238 347.338 240.893 346.522C241.554 345.706 242.844 345.466 244.389 345.739H244.395Z" fill="#414856"/>
<path fill-rule="evenodd" clip-rule="evenodd" d="M240.036 355.603C239.107 354.847 238.08 354.371 237.173 354.207C236.075 354.005 235.103 354.245 234.518 354.973C233.934 355.696 233.896 356.703 234.322 357.732C234.677 358.586 235.354 359.5 236.283 360.25C237.211 361 238.238 361.482 239.145 361.646C240.243 361.848 241.216 361.602 241.8 360.879C242.385 360.157 242.417 359.15 241.997 358.115C241.642 357.261 240.964 356.347 240.036 355.597V355.603ZM236.845 356.013C237.463 356.128 238.189 356.479 238.878 357.037C239.566 357.595 240.058 358.241 240.298 358.821C240.462 359.232 240.5 359.566 240.369 359.725C240.238 359.889 239.899 359.922 239.468 359.839C238.85 359.73 238.118 359.38 237.43 358.821C236.742 358.263 236.25 357.617 236.01 357.037C235.846 356.626 235.808 356.293 235.939 356.128C236.07 355.97 236.403 355.931 236.84 356.008L236.845 356.013Z" fill="#414856"/>
<path fill-rule="evenodd" clip-rule="evenodd" d="M238.457 474.092C237.528 473.342 236.501 472.86 235.595 472.696C234.497 472.493 233.524 472.74 232.94 473.462C232.355 474.185 232.317 475.192 232.743 476.226C233.098 477.08 233.776 477.994 234.704 478.744C235.633 479.494 236.66 479.976 237.567 480.14C238.665 480.343 239.637 480.102 240.221 479.374C240.806 478.651 240.839 477.644 240.418 476.615C240.063 475.756 239.386 474.847 238.457 474.097V474.092ZM235.267 474.502C235.884 474.617 236.616 474.967 237.304 475.526C237.993 476.084 238.484 476.73 238.725 477.31C238.889 477.721 238.927 478.055 238.796 478.219C238.665 478.383 238.331 478.416 237.9 478.334C237.283 478.224 236.551 477.874 235.862 477.316C235.174 476.757 234.682 476.111 234.442 475.531C234.278 475.121 234.24 474.787 234.371 474.623C234.502 474.458 234.835 474.425 235.267 474.502Z" fill="#414856"/>
<path fill-rule="evenodd" clip-rule="evenodd" d="M84.3983 390.678C85.0757 388.056 86.2939 385.818 87.7142 384.323C89.2547 382.687 91.0737 381.898 92.7835 382.342C94.4933 382.785 95.7007 384.362 96.2578 386.546C96.7659 388.543 96.744 391.089 96.0666 393.711C95.3892 396.332 94.1711 398.571 92.7508 400.066C91.2103 401.702 89.3912 402.49 87.6814 402.047C85.9716 401.604 84.7643 400.027 84.2071 397.849C83.6991 395.851 83.7209 393.306 84.3983 390.678ZM89.0416 385.582C87.8289 386.858 86.78 388.817 86.1737 391.138C85.5728 393.464 85.54 395.687 85.977 397.394C86.3649 398.916 87.1187 400 88.1348 400.263C89.1508 400.525 90.3308 399.951 91.407 398.807C92.6197 397.531 93.674 395.572 94.2749 393.251C94.8758 390.924 94.9086 388.702 94.4715 386.994C94.0782 385.473 93.3298 384.389 92.3137 384.126C91.2977 383.863 90.1177 384.438 89.0416 385.582Z" fill="#414856"/>
<path fill-rule="evenodd" clip-rule="evenodd" d="M193.39 513.606C192.461 512.851 191.434 512.374 190.527 512.21C189.429 512.008 188.457 512.249 187.873 512.977C187.288 513.699 187.25 514.706 187.676 515.735C188.031 516.589 188.708 517.503 189.637 518.253C190.566 519.003 191.593 519.485 192.499 519.649C193.597 519.851 194.57 519.605 195.154 518.883C195.739 518.16 195.777 517.153 195.351 516.118C194.996 515.265 194.319 514.35 193.39 513.601V513.606ZM190.2 514.017C190.817 514.131 191.543 514.482 192.232 515.04C192.92 515.598 193.412 516.244 193.652 516.825C193.816 517.235 193.854 517.569 193.723 517.733C193.592 517.897 193.259 517.925 192.827 517.848C192.21 517.733 191.478 517.383 190.79 516.825C190.101 516.266 189.61 515.62 189.369 515.04C189.205 514.63 189.167 514.296 189.298 514.131C189.429 513.967 189.763 513.94 190.2 514.017Z" fill="#EA592F"/>
<path fill-rule="evenodd" clip-rule="evenodd" d="M167.049 511.548C165.563 509.282 164.727 506.873 164.574 504.821C164.399 502.577 165.033 500.699 166.513 499.725C167.994 498.756 169.966 498.915 171.949 499.966C173.768 500.929 175.636 502.659 177.116 504.919C178.602 507.185 179.438 509.594 179.591 511.646C179.766 513.891 179.132 515.768 177.652 516.742C176.171 517.711 174.199 517.553 172.216 516.502C170.397 515.538 168.529 513.809 167.049 511.542V511.548ZM166.398 504.678C166.53 506.436 167.272 508.532 168.584 510.541C169.9 512.55 171.522 514.066 173.074 514.887C174.461 515.62 175.767 515.785 176.641 515.21C177.515 514.635 177.886 513.371 177.761 511.8C177.63 510.043 176.892 507.946 175.576 505.937C174.259 503.929 172.637 502.412 171.085 501.591C169.698 500.858 168.392 500.694 167.518 501.268C166.644 501.843 166.273 503.108 166.393 504.678H166.398Z" fill="#EA592F"/>
<path fill-rule="evenodd" clip-rule="evenodd" d="M32.5795 302.152C18.7426 316.116 22.4189 344.754 39.5444 379.753C47.9788 396.989 59.6744 415.797 74.1396 435.174C74.1123 434.134 74.1014 433.094 74.1014 432.048C60.3955 413.482 49.2735 395.484 41.1833 378.948C24.4183 344.672 20.6545 316.795 33.8796 303.45C47.1048 290.105 74.9536 293.674 109.27 310.237C143.865 326.932 184.923 356.829 224.243 395.949C263.575 435.092 293.69 476.024 310.592 510.568C327.357 544.839 331.115 572.716 317.89 586.061L317.841 586.11C304.594 599.395 276.789 595.815 242.516 579.279C228.897 572.705 214.274 564.09 199.153 553.662C198.143 553.717 197.132 553.761 196.116 553.788C212.029 564.889 227.422 574.03 241.718 580.927C276.756 597.84 305.353 601.316 319.19 587.353L319.458 587.085C332.972 573.012 329.241 544.527 312.231 509.758C295.242 475.033 265.006 433.92 225.549 394.652C186.075 355.368 144.832 325.35 110.068 308.573C75.0191 291.659 46.4165 288.178 32.5795 302.141V302.152Z" fill="#414856"/>
<path fill-rule="evenodd" clip-rule="evenodd" d="M58.2433 583.872C58.2433 593.259 50.5792 600.938 41.2162 600.938C50.5792 600.938 58.2433 608.618 58.2433 618.005C58.2433 608.618 65.9075 600.938 75.2705 600.938C65.9075 600.938 58.2433 593.259 58.2433 583.872Z" fill="#414856"/>
<path fill-rule="evenodd" clip-rule="evenodd" d="M506.489 240.935C506.713 240.612 506.631 240.169 506.309 239.95C505.986 239.725 505.549 239.807 505.325 240.13C505.287 240.19 490.663 260.684 492.149 285.354C492.171 285.742 492.504 286.043 492.898 286.022C493.286 286 493.586 285.666 493.564 285.272C492.111 261.1 506.451 240.995 506.489 240.94V240.935ZM493.936 289.174C493.886 288.786 493.531 288.512 493.143 288.561C492.761 288.611 492.482 288.966 492.532 289.355C492.641 290.203 492.777 291.057 492.93 291.922C493.083 292.792 493.264 293.657 493.46 294.506C493.548 294.889 493.925 295.124 494.307 295.042C494.689 294.955 494.924 294.571 494.842 294.194C494.646 293.34 494.471 292.497 494.323 291.676C494.176 290.844 494.045 290.012 493.936 289.18V289.174Z" fill="#EA592F"/>
<path fill-rule="evenodd" clip-rule="evenodd" d="M509.772 247.782C508.767 247.552 507.778 247.629 506.997 247.947C506.156 248.291 505.539 248.91 505.348 249.726C505.162 250.541 505.44 251.368 506.047 252.046C506.609 252.676 507.462 253.185 508.467 253.415C509.472 253.645 510.461 253.568 511.242 253.251C512.083 252.906 512.7 252.287 512.891 251.472C513.077 250.656 512.793 249.824 512.187 249.151C511.624 248.521 510.772 248.012 509.767 247.782H509.772ZM507.407 248.948C507.991 248.713 508.745 248.653 509.532 248.839C510.319 249.019 510.969 249.403 511.395 249.873C511.766 250.295 511.952 250.782 511.848 251.231C511.744 251.68 511.367 252.041 510.848 252.249C510.264 252.484 509.51 252.544 508.723 252.358C507.937 252.178 507.287 251.795 506.861 251.324C506.484 250.902 506.303 250.415 506.407 249.966C506.511 249.512 506.888 249.156 507.407 248.943V248.948Z" fill="#EA592F"/>
<path fill-rule="evenodd" clip-rule="evenodd" d="M529.596 301.397C529.596 301.003 529.279 300.685 528.886 300.685C528.493 300.685 528.176 301.003 528.176 301.397C528.176 301.397 528.154 302.448 528.198 305.174C528.203 305.563 528.525 305.875 528.913 305.869C529.307 305.869 529.613 305.541 529.607 305.152C529.574 303.154 529.591 301.403 529.591 301.397H529.596ZM529.804 311.529C529.787 311.14 529.46 310.834 529.066 310.85C528.678 310.867 528.373 311.195 528.389 311.589C528.602 316.51 529.028 322.733 529.858 329.088C530.689 335.46 531.929 341.979 533.775 347.48C533.901 347.852 534.3 348.049 534.671 347.929C535.042 347.808 535.245 347.403 535.119 347.031C533.305 341.618 532.082 335.197 531.262 328.908C530.437 322.602 530.022 316.422 529.809 311.529H529.804Z" fill="#EA592F"/>
<path fill-rule="evenodd" clip-rule="evenodd" d="M558.691 166.739C558.936 166.569 558.991 166.23 558.827 165.989C558.658 165.743 558.319 165.683 558.079 165.858C558.068 165.869 552.829 169.388 555.036 177.719C554.255 178.272 552.19 179.772 549.382 182.087C549.153 182.279 549.12 182.618 549.311 182.848C549.502 183.078 549.841 183.111 550.071 182.919C553.479 180.117 555.741 178.546 555.927 178.414C556.14 178.294 556.254 178.042 556.183 177.796C553.933 169.947 558.685 166.75 558.702 166.745L558.691 166.739ZM546.973 185.541C547.197 185.344 547.219 184.999 547.022 184.78C546.826 184.556 546.482 184.534 546.263 184.731C542.461 188.065 537.867 192.465 533.333 197.72C528.793 202.986 524.309 209.122 520.72 215.926C520.583 216.188 520.681 216.517 520.944 216.654C521.206 216.79 521.533 216.692 521.67 216.429C525.215 209.707 529.656 203.637 534.147 198.426C538.643 193.21 543.198 188.847 546.968 185.541H546.973ZM519.66 220.534C519.78 220.266 519.66 219.943 519.387 219.817C519.114 219.697 518.797 219.817 518.671 220.091C518.076 221.41 517.513 222.751 516.999 224.103C516.491 225.444 516.011 226.824 515.585 228.247C515.497 228.531 515.661 228.833 515.945 228.92C516.229 229.008 516.53 228.843 516.617 228.559C517.032 227.207 517.502 225.844 518.016 224.492C518.524 223.151 519.081 221.832 519.66 220.534Z" fill="#414856"/>
<path fill-rule="evenodd" clip-rule="evenodd" d="M568.31 212.34C568.556 212.647 568.998 212.696 569.304 212.45C569.605 212.203 569.659 211.76 569.414 211.454C569.397 211.437 563.459 204.07 549.24 201.721C548.857 201.661 548.491 201.924 548.431 202.307C548.371 202.696 548.628 203.057 549.016 203.123C562.7 205.378 568.299 212.318 568.31 212.34ZM546.7 202.8C547.088 202.844 547.443 202.564 547.486 202.176C547.53 201.787 547.251 201.431 546.864 201.388C546.039 201.289 545.176 201.207 544.291 201.147C543.46 201.092 542.581 201.048 541.658 201.026C541.264 201.015 540.942 201.327 540.931 201.716C540.92 202.105 541.232 202.433 541.619 202.438C542.477 202.46 543.34 202.499 544.192 202.559C545.05 202.619 545.886 202.696 546.694 202.789L546.7 202.8Z" fill="black"/>
<path fill-rule="evenodd" clip-rule="evenodd" d="M566.049 213.473L565.224 221.137C565.213 221.246 565.18 221.345 565.125 221.421C565.076 221.503 565 221.574 564.912 221.629C564.819 221.684 564.721 221.722 564.628 221.733C564.535 221.744 564.432 221.728 564.333 221.689L563.05 221.208C562.886 221.147 562.755 221.016 562.684 220.868C562.618 220.721 562.602 220.534 562.662 220.37L564.961 213.78C564.994 213.687 565.043 213.605 565.103 213.539C565.158 213.479 565.24 213.424 565.327 213.386C565.42 213.348 565.513 213.326 565.595 213.331C565.683 213.331 565.775 213.353 565.863 213.391L566.049 213.473ZM566.294 221.251L567.201 212.817L566.311 212.406C566.087 212.302 565.852 212.247 565.612 212.242C565.377 212.242 565.131 212.286 564.901 212.384C564.672 212.483 564.475 212.62 564.311 212.795C564.153 212.97 564.027 213.178 563.945 213.413L561.646 220.003C561.493 220.447 561.525 220.918 561.711 221.317C561.897 221.717 562.23 222.045 562.673 222.215L563.951 222.697C564.208 222.795 564.47 222.828 564.732 222.806C564.994 222.784 565.246 222.697 565.475 222.554C565.71 222.412 565.896 222.226 566.038 222.001C566.18 221.782 566.267 221.531 566.294 221.251Z" fill="black"/>
<path fill-rule="evenodd" clip-rule="evenodd" d="M453.337 85.5317C453.337 90.0475 449.65 93.7422 445.143 93.7422C449.65 93.7422 453.337 97.4369 453.337 101.953C453.337 97.4369 457.025 93.7422 461.531 93.7422C457.025 93.7422 453.337 90.0475 453.337 85.5317Z" fill="#414856"/>
<path fill-rule="evenodd" clip-rule="evenodd" d="M522.527 27.8884L523.014 33.1376L517.769 33.6084L517.917 35.1848L523.161 34.7141L523.642 39.9578L525.221 39.8155L524.734 34.5717L529.979 34.101L529.831 32.5191L524.592 32.9953L524.106 27.7461L522.527 27.8884Z" fill="#414856"/>
<path fill-rule="evenodd" clip-rule="evenodd" d="M555.517 147.362C556.243 147.308 556.877 147.855 556.931 148.583L557.068 150.367C557.123 151.095 556.576 151.736 555.85 151.79C555.123 151.845 554.484 151.298 554.43 150.564L554.293 148.785C554.238 148.057 554.785 147.417 555.517 147.362Z" fill="#333333"/>
<path fill-rule="evenodd" clip-rule="evenodd" d="M574.937 146.815C575.663 146.76 576.297 147.308 576.351 148.041L576.488 149.825C576.543 150.553 575.996 151.194 575.27 151.249C574.543 151.303 573.904 150.756 573.849 150.028L573.713 148.244C573.658 147.51 574.21 146.875 574.931 146.82L574.937 146.815Z" fill="#333333"/>
<path fill-rule="evenodd" clip-rule="evenodd" d="M563.64 148.238C561.569 151.407 558.111 153.619 554.053 153.958C549.994 154.297 546.219 152.688 543.652 149.913C542.363 148.517 542.002 146.629 542.69 144.855C543.379 143.082 544.914 141.932 546.804 141.774L559.182 140.739C561.072 140.58 562.782 141.462 563.749 143.093C564.721 144.73 564.678 146.651 563.64 148.238Z" fill="#414856"/>
<path fill-rule="evenodd" clip-rule="evenodd" d="M555.68 141.243L554.315 144.954L553.681 146.673L554.375 146.689L557.035 146.766L553.004 150.4L548.972 154.04L550.343 150.329L550.977 148.61L550.283 148.588L547.617 148.517L551.649 144.877L555.68 141.243Z" fill="white"/>
<path fill-rule="evenodd" clip-rule="evenodd" d="M565 142.332C566.633 142.19 568.086 143.41 568.228 145.047L568.572 149.004C568.714 150.641 567.496 152.097 565.863 152.239C564.229 152.382 562.776 151.161 562.634 149.524L562.29 145.567C562.148 143.93 563.366 142.474 565 142.332Z" fill="#EA592F"/>
<path fill-rule="evenodd" clip-rule="evenodd" d="M561.088 148.703L565.573 148.309C566.813 148.2 567.911 149.125 568.015 150.362C568.124 151.599 567.201 152.699 565.967 152.809L561.482 153.203C560.242 153.312 559.149 152.387 559.04 151.15C558.931 149.913 559.854 148.813 561.088 148.703Z" fill="#EA592F"/>
<path fill-rule="evenodd" clip-rule="evenodd" d="M587.484 146.24C585.414 149.404 581.956 151.621 577.897 151.96C573.838 152.3 570.064 150.69 567.496 147.91C566.207 146.514 565.847 144.626 566.535 142.852C567.223 141.079 568.758 139.929 570.648 139.77L583.021 138.736C584.911 138.577 586.621 139.458 587.588 141.09C588.555 142.726 588.517 144.647 587.473 146.235L587.484 146.24Z" fill="#414856"/>
<path fill-rule="evenodd" clip-rule="evenodd" d="M581.022 139.042L579.656 142.754L579.022 144.478L579.716 144.494L582.376 144.565L578.345 148.205L574.314 151.845L575.679 148.134L576.318 146.41L575.625 146.394L572.959 146.322L576.99 142.682L581.022 139.042Z" fill="white"/>
<path fill-rule="evenodd" clip-rule="evenodd" d="M559.04 140.422C558.68 140.219 558.549 139.765 558.751 139.404C558.947 139.042 559.406 138.911 559.767 139.113C559.783 139.119 565.295 142.151 568.66 137.532C568.906 137.198 569.37 137.127 569.703 137.367C570.037 137.608 570.113 138.079 569.867 138.413C565.727 144.095 559.057 140.427 559.04 140.422Z" fill="#A88D6F"/>
<g clip-path="url(#clip2_222_1761)">
<path d="M154.908 216.517C155.449 216.743 155.897 217.045 156.305 217.385C156.889 217.869 157.509 218.354 157.835 219.067C158.007 219.447 158.351 219.77 158.276 220.247C158.656 220.925 158.556 221.678 158.498 222.385C158.398 223.665 158.011 224.884 157.395 226.028C156.828 227.083 156.08 227.968 155.055 228.589C154.281 229.059 153.424 229.338 152.532 229.518C151.815 229.661 151.092 229.676 150.368 229.668C149.733 229.661 149.099 229.643 148.472 229.564C148.454 229.564 148.436 229.568 148.422 229.564C148.089 229.381 147.713 229.514 147.365 229.421C147.007 229.324 146.63 229.277 146.265 229.213C146.139 229.191 146.132 229.281 146.114 229.367C145.792 230.647 145.469 231.924 145.147 233.204C145.032 233.664 144.9 234.123 144.799 234.585C144.763 234.75 144.681 234.761 144.566 234.732C143.574 234.488 142.581 234.241 141.585 233.99C141.453 233.958 141.413 233.889 141.453 233.735C141.761 232.523 142.055 231.307 142.352 230.092C142.474 229.589 142.599 229.087 142.732 228.589C142.764 228.463 142.721 228.417 142.614 228.392C142.348 228.331 142.08 228.273 141.814 228.202C141.32 228.069 140.825 227.933 140.335 227.786C140.166 227.735 140.091 227.76 140.044 227.951C139.711 229.328 139.367 230.705 139.023 232.078C138.933 232.433 138.819 232.781 138.729 233.136C138.704 233.244 138.661 233.248 138.575 233.23C137.554 233.018 136.558 232.695 135.54 232.466C135.361 232.426 135.393 232.326 135.425 232.2C135.68 231.178 135.934 230.156 136.189 229.134C136.364 228.424 136.533 227.71 136.712 227C136.744 226.875 136.73 226.821 136.594 226.789C135.927 226.627 135.261 226.459 134.598 226.29C134.261 226.204 133.924 226.107 133.587 226.025C132.484 225.752 131.38 225.494 130.28 225.211C129.936 225.121 129.975 225.178 130.111 224.863C130.599 223.744 131.09 222.625 131.566 221.499C131.649 221.309 131.724 221.273 131.921 221.33C132.684 221.545 133.451 221.746 134.221 221.936C134.806 222.08 135.519 221.624 135.662 221.04C136.006 219.637 136.35 218.239 136.697 216.84C136.959 215.793 137.228 214.749 137.489 213.706C138.066 211.396 138.643 209.09 139.209 206.78C139.299 206.422 139.385 206.067 139.399 205.687C139.421 204.955 138.89 204.363 138.285 204.137C137.432 203.822 136.536 203.653 135.651 203.456C135.494 203.42 135.393 203.384 135.451 203.158C135.726 202.122 135.981 201.075 136.235 200.031C136.282 199.837 136.375 199.805 136.554 199.852C137.421 200.078 138.292 200.296 139.163 200.515C139.84 200.687 140.517 200.859 141.195 201.032C141.696 201.157 142.201 201.275 142.703 201.401C142.993 201.473 143.083 201.415 143.158 201.118C143.567 199.486 143.979 197.854 144.387 196.219C144.445 195.993 144.556 195.943 144.767 196.032C145.265 196.24 145.799 196.316 146.319 196.448C146.759 196.559 147.207 196.649 147.648 196.76C147.745 196.785 147.781 196.875 147.752 196.986C147.376 198.489 146.999 199.988 146.623 201.491C146.577 201.681 146.552 201.878 146.48 202.057C146.433 202.179 146.448 202.197 146.569 202.229C147.34 202.448 148.15 202.531 148.902 202.825C149.085 202.896 149.171 202.764 149.21 202.599C149.49 201.473 149.769 200.35 150.049 199.224C150.181 198.697 150.321 198.173 150.443 197.642C150.479 197.477 150.543 197.456 150.687 197.499C151.539 197.754 152.417 197.901 153.263 198.166C153.399 198.209 153.543 198.227 153.686 198.249C153.822 198.27 153.844 198.342 153.808 198.464C153.399 199.812 153.134 201.193 152.769 202.552C152.668 202.929 152.593 203.316 152.478 203.689C152.439 203.818 152.478 203.829 152.571 203.858C153.517 204.177 154.431 204.564 155.313 205.027C155.922 205.346 156.506 205.708 157.029 206.171C157.448 206.544 157.875 206.902 158.212 207.354C158.717 208.036 159.061 208.778 159.19 209.628C159.269 210.166 159.315 210.704 159.229 211.235C159.154 211.701 159.061 212.167 158.925 212.633C158.763 213.178 158.599 213.702 158.298 214.175C157.541 215.37 156.452 216.105 155.083 216.435C155.037 216.446 154.99 216.471 154.908 216.503V216.517ZM151.633 221.599C151.643 220.954 151.532 220.495 151.21 219.971C150.751 219.236 150.103 218.705 149.35 218.3C148.687 217.941 148.003 217.643 147.286 217.403C146.394 217.102 145.487 216.858 144.57 216.646C144.108 216.539 143.638 216.456 143.183 216.334C143.018 216.291 143.026 216.363 142.997 216.467C142.717 217.593 142.442 218.723 142.148 219.845C141.825 221.079 141.506 222.316 141.209 223.557C141.173 223.704 141.187 223.733 141.327 223.744C141.628 223.765 141.897 223.909 142.187 223.98C142.714 224.106 143.241 224.246 143.771 224.364C144.258 224.475 144.746 224.579 145.236 224.662C145.663 224.734 146.096 224.82 146.523 224.812C147.128 224.805 147.73 224.848 148.336 224.773C148.888 224.705 149.422 224.579 149.923 224.336C150.74 223.941 151.278 223.303 151.507 222.424C151.539 222.291 151.722 222.238 151.668 222.105C151.593 221.925 151.658 221.753 151.636 221.606L151.633 221.599ZM149.415 213.81C149.777 213.781 150.135 213.72 150.49 213.612C151.4 213.34 152.081 212.809 152.446 211.909C152.554 211.643 152.607 211.364 152.679 211.095C152.722 210.93 152.65 210.7 152.65 210.499C152.654 209.854 152.385 209.32 151.977 208.843C151.403 208.179 150.665 207.749 149.87 207.408C149.024 207.049 148.146 206.784 147.254 206.58C146.738 206.461 146.222 206.343 145.706 206.217C145.588 206.189 145.548 206.199 145.502 206.336C145.412 206.612 145.362 206.895 145.294 207.175C145.014 208.297 144.749 209.427 144.448 210.546C144.251 211.285 144.133 212.045 143.889 212.77C143.835 212.931 143.961 212.917 144.029 212.942C144.305 213.035 144.584 213.096 144.867 213.161C145.398 213.286 145.914 213.48 146.451 213.566C147.433 213.72 148.418 213.86 149.418 213.806L149.415 213.81ZM138.095 212.332C138.095 212.332 138.091 212.318 138.084 212.318C138.077 212.318 138.07 212.318 138.066 212.318C138.07 212.325 138.073 212.336 138.081 212.343C138.084 212.343 138.091 212.336 138.095 212.332Z" fill="#EA592F"/>
<path d="M138.096 212.332C138.096 212.332 138.085 212.34 138.081 212.343C138.077 212.336 138.074 212.325 138.066 212.318C138.074 212.318 138.081 212.318 138.085 212.318C138.088 212.318 138.092 212.329 138.096 212.332Z" fill="#EA592F"/>
</g>
<path fill-rule="evenodd" clip-rule="evenodd" d="M108.184 554.139L110.007 554.528L107.016 571.085C105.413 580.224 103.891 587.738 103.635 587.778C102.808 587.758 102 587.622 101.211 587.371L99.256 586.853L101.735 572.776L104.731 556.255C105.2 553.744 105.439 553.594 108.184 554.139Z" fill="#8BC9A7"/>
<path fill-rule="evenodd" clip-rule="evenodd" d="M92.3264 567.014C92.1414 567.268 90.6905 568.771 88.9892 570.35L86.0393 573.288L90.2881 575.771L94.5368 578.255L93.4394 580.34C92.7838 581.418 92.2265 582.405 92.0802 582.428C91.9339 582.451 89.0641 580.876 85.6751 578.858L78.6721 574.819C77.9449 574.483 78.9125 573.243 83.4596 568.78L89.0646 563.176L90.8314 564.886C91.8081 565.858 92.5172 566.797 92.3264 567.014Z" fill="#8BC9A7"/>
<path fill-rule="evenodd" clip-rule="evenodd" d="M125.442 563.357C128.367 564.81 130.581 566.263 130.354 566.486C128.205 569.036 119.913 578.062 119.73 578.091C119.017 577.603 118.371 577.066 117.755 576.488L116.079 574.876L119.154 571.543C120.846 569.665 122.195 567.991 122.149 567.698C122.109 567.442 120.33 566.371 118.259 565.346L114.352 563.371L115.421 561.104L116.484 558.799L118.361 559.78L125.442 563.357Z" fill="#8BC9A7"/>
<g id="circle">
<path d="M306.652 43.665L290.395 60.9151L301.618 70.2984L315.489 65.6697L306.652 43.665Z" fill="#8BC9A7"/>
<path d="M300.589 75.7368L289.349 66.397L298.763 85.3975L314.46 71.155L300.589 75.7368Z" fill="#8BC9A7"/>
</g>
</g>
<defs>
<clipPath id="clip0_222_1761">
<rect width="830" height="618" fill="white" transform="matrix(-1 0 0 1 830 0)"/>
</clipPath>
<clipPath id="clip1_222_1761">
<rect width="367.11" height="367.16" fill="white" transform="translate(431 229)"/>
</clipPath>
<clipPath id="clip2_222_1761">
<rect width="29.2719" height="38.7431" fill="white" transform="translate(130 196)"/>
</clipPath>
</defs>
</svg>
